<svg width="20" height="16" viewBox="0 0 20 16" fill="none" xmlns="http://www.w3.org/2000/svg">
<path d="M0.571533 4.67764L9.70353 9.42707C9.79513 9.4747 9.89686 9.49957 10.0001 9.49957C10.1033 9.49957 10.2051 9.4747 10.2967 9.42707L19.4287 4.6785V12.9285C19.4287 13.64 19.1565 14.3246 18.6678 14.8418C18.1791 15.359 17.5111 15.6696 16.8007 15.7099L16.643 15.7142H3.35725C2.6457 15.7143 1.96111 15.442 1.44391 14.9534C0.926705 14.4647 0.616104 13.7966 0.575819 13.0862L0.571533 12.9285V4.67764ZM3.35725 0.285645H16.643C17.3545 0.285598 18.0391 0.557834 18.5563 1.04651C19.0735 1.53518 19.3841 2.20324 19.4244 2.91364L19.4287 3.07136V3.22907L10.0001 8.13193L0.571533 3.22907V3.07136C0.571487 2.35981 0.843722 1.67522 1.33239 1.15802C1.82107 0.640816 2.48913 0.330215 3.19953 0.28993L3.35725 0.285645H16.643H3.35725Z" fill="white"/>
</svg>
